<mxfile host="app.diagrams.net" modified="2024-06-28T15:09:53.433Z" agent="Mozilla/5.0 (Windows NT 10.0; Win64; x64) AppleWebKit/537.36 (KHTML, like Gecko) Chrome/126.0.0.0 Safari/537.36" etag="E01e7AoLL5bZsZA8HCPO" version="24.2.2" type="device">
  <diagram name="Page-1" id="h_yaCUWwzOoUeUD5b_Yi">
    <mxGraphModel dx="1743" dy="1206" grid="1" gridSize="10" guides="1" tooltips="1" connect="1" arrows="1" fold="1" page="1" pageScale="1" pageWidth="850" pageHeight="1100" math="0" shadow="0">
      <root>
        <mxCell id="0" />
        <mxCell id="1" parent="0" />
        <mxCell id="Le--b-yVDmLkwfN9m6Gu-1" value="" style="rounded=0;whiteSpace=wrap;html=1;" vertex="1" parent="1">
          <mxGeometry x="120" y="330" width="330" height="100" as="geometry" />
        </mxCell>
        <mxCell id="Le--b-yVDmLkwfN9m6Gu-2" value="HTTP Endpoints" style="text;html=1;align=center;verticalAlign=middle;whiteSpace=wrap;rounded=0;" vertex="1" parent="1">
          <mxGeometry x="120" y="330" width="110" height="30" as="geometry" />
        </mxCell>
        <mxCell id="Le--b-yVDmLkwfN9m6Gu-3" value="/rate" style="rounded=0;whiteSpace=wrap;html=1;" vertex="1" parent="1">
          <mxGeometry x="140" y="380" width="110" height="40" as="geometry" />
        </mxCell>
        <mxCell id="Le--b-yVDmLkwfN9m6Gu-5" value="/subscribe" style="rounded=0;whiteSpace=wrap;html=1;" vertex="1" parent="1">
          <mxGeometry x="300" y="380" width="110" height="40" as="geometry" />
        </mxCell>
        <mxCell id="Le--b-yVDmLkwfN9m6Gu-10" value="" style="rounded=0;whiteSpace=wrap;html=1;" vertex="1" parent="1">
          <mxGeometry x="80" y="470" width="720" height="300" as="geometry" />
        </mxCell>
        <mxCell id="Le--b-yVDmLkwfN9m6Gu-11" value="Services" style="text;html=1;align=center;verticalAlign=middle;whiteSpace=wrap;rounded=0;" vertex="1" parent="1">
          <mxGeometry x="80" y="740" width="60" height="30" as="geometry" />
        </mxCell>
        <mxCell id="Le--b-yVDmLkwfN9m6Gu-14" style="edgeStyle=orthogonalEdgeStyle;rounded=0;orthogonalLoop=1;jettySize=auto;html=1;entryX=0;entryY=0.5;entryDx=0;entryDy=0;" edge="1" parent="1" source="Le--b-yVDmLkwfN9m6Gu-12" target="Le--b-yVDmLkwfN9m6Gu-13">
          <mxGeometry relative="1" as="geometry" />
        </mxCell>
        <mxCell id="Le--b-yVDmLkwfN9m6Gu-24" style="edgeStyle=orthogonalEdgeStyle;rounded=0;orthogonalLoop=1;jettySize=auto;html=1;exitX=1;exitY=0.5;exitDx=0;exitDy=0;entryX=0;entryY=0.5;entryDx=0;entryDy=0;" edge="1" parent="1" source="Le--b-yVDmLkwfN9m6Gu-12" target="Le--b-yVDmLkwfN9m6Gu-23">
          <mxGeometry relative="1" as="geometry" />
        </mxCell>
        <mxCell id="Le--b-yVDmLkwfN9m6Gu-12" value="Rate Service" style="rounded=0;whiteSpace=wrap;html=1;" vertex="1" parent="1">
          <mxGeometry x="90" y="500" width="110" height="40" as="geometry" />
        </mxCell>
        <mxCell id="Le--b-yVDmLkwfN9m6Gu-13" value="" style="rounded=0;whiteSpace=wrap;html=1;" vertex="1" parent="1">
          <mxGeometry x="170" y="620" width="160" height="120" as="geometry" />
        </mxCell>
        <mxCell id="Le--b-yVDmLkwfN9m6Gu-15" value="Providers" style="text;html=1;align=center;verticalAlign=middle;whiteSpace=wrap;rounded=0;" vertex="1" parent="1">
          <mxGeometry x="180" y="620" width="60" height="30" as="geometry" />
        </mxCell>
        <mxCell id="Le--b-yVDmLkwfN9m6Gu-16" value="NBU" style="rounded=0;whiteSpace=wrap;html=1;" vertex="1" parent="1">
          <mxGeometry x="180" y="650" width="140" height="20" as="geometry" />
        </mxCell>
        <mxCell id="Le--b-yVDmLkwfN9m6Gu-17" value="PrivatBank" style="rounded=0;whiteSpace=wrap;html=1;" vertex="1" parent="1">
          <mxGeometry x="180" y="680" width="140" height="20" as="geometry" />
        </mxCell>
        <mxCell id="Le--b-yVDmLkwfN9m6Gu-18" value="Fawaz Ahmet" style="rounded=0;whiteSpace=wrap;html=1;" vertex="1" parent="1">
          <mxGeometry x="180" y="710" width="140" height="20" as="geometry" />
        </mxCell>
        <mxCell id="Le--b-yVDmLkwfN9m6Gu-20" value="" style="endArrow=classic;html=1;rounded=0;exitX=0.5;exitY=1;exitDx=0;exitDy=0;entryX=0.5;entryY=0;entryDx=0;entryDy=0;" edge="1" parent="1" source="Le--b-yVDmLkwfN9m6Gu-3" target="Le--b-yVDmLkwfN9m6Gu-12">
          <mxGeometry width="50" height="50" relative="1" as="geometry">
            <mxPoint x="320" y="520" as="sourcePoint" />
            <mxPoint x="370" y="470" as="targetPoint" />
          </mxGeometry>
        </mxCell>
        <mxCell id="Le--b-yVDmLkwfN9m6Gu-21" value="Email Service" style="rounded=0;whiteSpace=wrap;html=1;" vertex="1" parent="1">
          <mxGeometry x="640" y="500" width="125" height="40" as="geometry" />
        </mxCell>
        <mxCell id="Le--b-yVDmLkwfN9m6Gu-22" value="" style="endArrow=classic;html=1;rounded=0;exitX=0.5;exitY=1;exitDx=0;exitDy=0;entryX=0.5;entryY=0;entryDx=0;entryDy=0;" edge="1" parent="1" source="Le--b-yVDmLkwfN9m6Gu-5" target="Le--b-yVDmLkwfN9m6Gu-21">
          <mxGeometry width="50" height="50" relative="1" as="geometry">
            <mxPoint x="390" y="520" as="sourcePoint" />
            <mxPoint x="440" y="470" as="targetPoint" />
          </mxGeometry>
        </mxCell>
        <mxCell id="Le--b-yVDmLkwfN9m6Gu-23" value="Cache" style="rounded=0;whiteSpace=wrap;html=1;" vertex="1" parent="1">
          <mxGeometry x="230" y="505" width="100" height="30" as="geometry" />
        </mxCell>
        <mxCell id="Le--b-yVDmLkwfN9m6Gu-26" value="" style="rounded=0;whiteSpace=wrap;html=1;" vertex="1" parent="1">
          <mxGeometry x="80" y="800" width="720" height="80" as="geometry" />
        </mxCell>
        <mxCell id="Le--b-yVDmLkwfN9m6Gu-27" value="Data Access Layer" style="text;html=1;align=center;verticalAlign=middle;whiteSpace=wrap;rounded=0;" vertex="1" parent="1">
          <mxGeometry x="80" y="850" width="120" height="30" as="geometry" />
        </mxCell>
        <mxCell id="Le--b-yVDmLkwfN9m6Gu-31" value="" style="edgeStyle=orthogonalEdgeStyle;rounded=0;orthogonalLoop=1;jettySize=auto;html=1;" edge="1" parent="1" source="Le--b-yVDmLkwfN9m6Gu-28" target="Le--b-yVDmLkwfN9m6Gu-30">
          <mxGeometry relative="1" as="geometry" />
        </mxCell>
        <mxCell id="Le--b-yVDmLkwfN9m6Gu-28" value="Email Repository" style="rounded=0;whiteSpace=wrap;html=1;" vertex="1" parent="1">
          <mxGeometry x="635" y="820" width="130" height="40" as="geometry" />
        </mxCell>
        <mxCell id="Le--b-yVDmLkwfN9m6Gu-29" value="" style="endArrow=classic;html=1;rounded=0;exitX=0.458;exitY=1.013;exitDx=0;exitDy=0;exitPerimeter=0;entryX=0.5;entryY=0;entryDx=0;entryDy=0;" edge="1" parent="1" source="Le--b-yVDmLkwfN9m6Gu-21" target="Le--b-yVDmLkwfN9m6Gu-28">
          <mxGeometry width="50" height="50" relative="1" as="geometry">
            <mxPoint x="460" y="800" as="sourcePoint" />
            <mxPoint x="510" y="750" as="targetPoint" />
          </mxGeometry>
        </mxCell>
        <mxCell id="Le--b-yVDmLkwfN9m6Gu-30" value="&lt;font style=&quot;font-size: 15px;&quot;&gt;PostgreSQL DB&lt;/font&gt;" style="strokeWidth=2;html=1;shape=mxgraph.flowchart.database;whiteSpace=wrap;" vertex="1" parent="1">
          <mxGeometry x="394" y="930" width="117" height="60" as="geometry" />
        </mxCell>
        <mxCell id="Le--b-yVDmLkwfN9m6Gu-32" value="Mailer Service" style="rounded=0;whiteSpace=wrap;html=1;" vertex="1" parent="1">
          <mxGeometry x="400" y="600" width="163" height="40" as="geometry" />
        </mxCell>
        <mxCell id="Le--b-yVDmLkwfN9m6Gu-34" value="" style="endArrow=classic;html=1;rounded=0;exitX=0.5;exitY=0;exitDx=0;exitDy=0;entryX=0;entryY=0.5;entryDx=0;entryDy=0;" edge="1" parent="1" source="Le--b-yVDmLkwfN9m6Gu-32" target="Le--b-yVDmLkwfN9m6Gu-21">
          <mxGeometry width="50" height="50" relative="1" as="geometry">
            <mxPoint x="420" y="660" as="sourcePoint" />
            <mxPoint x="470" y="610" as="targetPoint" />
          </mxGeometry>
        </mxCell>
        <mxCell id="Le--b-yVDmLkwfN9m6Gu-36" value="" style="endArrow=classic;html=1;rounded=0;exitX=0.5;exitY=0;exitDx=0;exitDy=0;entryX=0.89;entryY=1.042;entryDx=0;entryDy=0;entryPerimeter=0;" edge="1" parent="1" source="Le--b-yVDmLkwfN9m6Gu-32" target="Le--b-yVDmLkwfN9m6Gu-12">
          <mxGeometry width="50" height="50" relative="1" as="geometry">
            <mxPoint x="410" y="570" as="sourcePoint" />
            <mxPoint x="460" y="520" as="targetPoint" />
          </mxGeometry>
        </mxCell>
      </root>
    </mxGraphModel>
  </diagram>
</mxfile>
